PathFileType	4	(X/Y/Z)	C:/Users/beibeiliu/ov580/test_trc/capture2\sequence.35_training_dense_left.trc
DataRate	CameraRate	NumFrames	NumMarkers	Units	OrigDataRate	OrigDataStartFrame	OrigNumFrames
120	120	15	19	mm	120	239	272
Frame#	Time	ThumbCMC			ThumbMCP			ThumbIP			ThumbTip			IndexMCP			IndexPIP			IndexTip			MiddleMCP			MiddlePIP			MiddleTip			RingMCP			RingPIP			RingTip			PinkyMCP			PinkyPIP			PinkyTip			BackHand1			BackHand2			BackHand3	
		X0	Y0	Z0	X1	Y1	Z1	X2	Y2	Z2	X3	Y3	Z3	X4	Y4	Z4	X5	Y5	Z5	X6	Y6	Z6	X7	Y7	Z7	X8	Y8	Z8	X9	Y9	Z9	X10	Y10	Z10	X11	Y11	Z11	X12	Y12	Z12	X13	Y13	Z13	X14	Y14	Z14	X15	Y15	Z15	X16	Y16	Z16	X17	Y17	Z17	X18	Y18	Z18	
238	1.98333	-211.715	59.957	100.11	-213.799	84.8426	80.6217	-223.008	99.6055	55.544	-221.68	94.545	28.5984	-248.685	52.1653	37.8268	-237.694	77.5058	20.4466	-213.661	86.6879	39.2357	-234.358	41.5965	21.519	-218.829	67.182	8.44399	-198.646	78.9128	36.9655	-215.969	36.7209	14.8075	-203.471	61.5808	8.51713	-188.094	71.814	37.5949	-197.662	26.3108	13.8188	-190.108	54.1556	9.81095	-178.349	66.1021	35.8407	-201.827	6.20517	65.6565	-187.269	-0.149984	86.4176	-214.416	21.6265	93.6526	
239	1.99167	-215.06	55.0321	98.4112	-220.381	76.9351	75.4826	-230.85	89.7261	52.1292	-232.192	86.5828	22.9261	-252.945	40.9143	35.0672	-248.639	65.892	17.698	-218.682	76.1635	33.3653	-241.216	30.4191	20.7039	-227.653	54.6679	4.52561	-204.476	68.5697	30.7774	-220.998	24.3771	13.8955	-209.04	53.6971	6.65196	-192.377	63.2557	30.486	-205.213	14.4315	17.1918	-196.861	44.7878	6.21071	-187.628	57.2241	29.4354	-206.317	-1.91242	61.1803	-187.951	-5.02043	88.8083	-219.356	14.5436	90.9989	
240	2	-218.6	47.8603	90.9316	-225.491	70.3472	73.9707	-238.184	80.5888	48.5981	-236.819	72.2216	21.7532	-255.915	29.6149	31.0902	-247.888	53.0694	10.6599	-224.613	65.3625	23.8768	-243.356	18.5264	13.7041	-234.268	40.478	-0.904734	-208.917	58.6178	24.9094	-226.899	15.0016	11.2557	-213.628	40.2774	1.17239	-195.109	53.5495	27.8911	-207.036	2.46842	7.21229	-199.599	30.3494	-0.0581157	-192.755	46.0788	26.299	-207.084	-12.4061	60.7725	-191.222	-8.13941	84.9717	-221.894	7.97217	88.4844	
241	2.00833	-215.246	36.6022	86.5142	-229.22	59.4185	65.8681	-244.176	66.1042	38.9538	-241.327	59.6936	16.6676	-255.629	17.4347	25.2116	-250.158	37.2874	3.23049	-223.124	51.0415	16.6734	-243.767	4.73737	12.0824	-233.924	29.6987	-6.61423	-209.331	45.6393	16.1165	-224.661	-0.515567	4.77733	-209.45	28.0533	-6.85117	-197.304	41.8554	21.3075	-203.661	-10.7285	3.67555	-198.054	18.437	-4.56466	-189.768	32.3627	21.2383	-205.27	-22.1838	57.9563	-186.965	-17.2374	81.1973	-219.87	-1.84598	78.8928	
242	2.01667	-216.649	28.8097	78.047	-228.057	43.6914	54.5154	-242.107	52.2155	30.8577	-242.314	44.9303	2.62249	-250.462	4.72019	12.6045	-239.557	23.5891	-7.52873	-215.564	38.1317	10.5021	-234.809	-9.45305	1.45386	-225.144	17.3163	-14.1917	-203.002	31.4526	8.30887	-214.649	-18.1191	-3.18362	-207.506	12.1691	-13.5787	-190.894	27.9535	12.8537	-198.016	-24.2946	-1.13287	-194.262	2.94783	-11.8216	-185.617	20.1432	16.1647	-202.766	-29.6144	53.5091	-184.185	-23.7579	78.2954	-218.657	-10.3169	74.4818	
243	2.025	-211.085	17.9209	67.4608	-223.188	34.661	44.3427	-232.677	36.2378	17.5681	-231.945	30.0169	-7.53441	-236.801	-12.2773	1.2559	-226.344	6.11845	-19.7512	-205.809	26.0303	0.415341	-222.128	-23.0144	-7.95451	-208.945	-0.375606	-25.4924	-191.2	16.7707	2.54942	-201.165	-32.35	-7.58549	-195.978	-6.85816	-24.6265	-181.786	14.308	3.83617	-184.587	-36.6251	-7.71428	-178.281	-11.3548	-19.8726	-176.514	6.86958	5.8745	-194.563	-40.1194	44.2777	-180.399	-32.6942	72.7369	-207.831	-22.2751	66.4266	
244	2.03333	-203.749	7.32194	53.7959	-215.13	23.917	31.706	-221.439	23.8635	5.38748	-218.309	14.7895	-23.8896	-221.67	-26.0667	-7.97927	-211.1	-9.9414	-32.429	-195.892	14.176	-11.9939	-205.507	-37.6083	-17.8396	-190.25	-16.3172	-34.9824	-178.587	4.96365	-6.71017	-186.42	-43.7351	-16.4794	-176.835	-16.312	-31.6078	-167.374	2.2983	-4.98995	-166.084	-49.4133	-10.3741	-159.472	-26.3911	-27.7606	-161.76	-2.20465	-3.83664	-177.056	-50.6552	40.4717	-170.953	-42.5745	65.6195	-202.002	-26.9307	59.0992	
245	2.04167	-195.674	0.234324	45.1677	-204.239	12.6075	12.5828	-207.614	13.9208	-10.2857	-199.852	5.13664	-33.8122	-202.906	-38.7034	-21.8758	-192.713	-20.8267	-42.9748	-181.448	3.94264	-22.7056	-187.057	-48.2797	-23.9742	-172.442	-27.5315	-44.3838	-163.722	-5.31675	-15.17	-168.483	-52.9175	-24.8057	-156.207	-26.9698	-39.2539	-152.493	-7.58716	-14.6344	-145.605	-57.8297	-14.3161	-143.744	-35.2589	-33.9806	-146.928	-9.13156	-12.6312	-165.489	-57.9854	31.1998	-160.336	-46.8707	59.8994	-192.054	-37.015	48.3373	
246	2.05	-187.652	-4.35702	30.6338	-188.945	4.69605	-0.816686	-189.797	5.74957	-22.1544	-181.552	-2.38866	-46.455	-184.369	-47.5197	-33.2863	-174.311	-29.1258	-54.6523	-164.404	-6.11677	-33.0679	-168.128	-55.4043	-34.7767	-154.919	-30.6445	-52.8842	-153.914	-8.78782	-26.8218	-144.786	-59.6153	-30.145	-141.395	-30.7314	-46.732	-139.999	-12.2107	-18.3747	-130.541	-59.4239	-22.2945	-127.099	-35.6395	-39.4723	-131.792	-15.18	-21.2855	-154.008	-60.7547	23.2814	-149.352	-48.203	54.715	-180.132	-44.01	34.5164	
247	2.05833	-174.484	-8.77147	20.5306	-170.972	2.27343	-7.12578	-173.871	0.891828	-36.3264	-165.043	-4.74942	-56.0048	-170.555	-51.5813	-40.8801	-157.135	-37.3321	-64.7535	-151.666	-7.9451	-49.6211	-149.83	-56.8666	-43.4486	-138.93	-34.8892	-62.3287	-139.649	-10.5491	-32.3663	-128.304	-58.9905	-36.3905	-118.718	-31.5109	-52.2158	-126.339	-12.6996	-24.0121	-111.473	-59.39	-24.7848	-109.73	-37.3544	-44.7741	-120.142	-13.508	-27.5774	-135.876	-61.8514	17.1446	-139.019	-50.8119	46.095	-166.376	-45.8765	29.9305	
248	2.06667	-165.192	-5.58836	11.4939	-159.211	4.52747	-15.4581	-158.902	5.17999	-41.5724	-148.226	-2.72517	-66.076	-150.747	-49.3848	-45.3643	-139.009	-38.4057	-73.2458	-131.009	-7.44304	-61.7305	-130.21	-54.4195	-49.42	-122.197	-29.446	-70.7022	-124.056	-5.85386	-45.2501	-113.468	-53.9656	-42.6771	-106.246	-28.7306	-60.1493	-113.312	-7.90683	-36.1636	-96.3222	-54.2967	-28.2706	-91.4336	-33.6134	-49.245	-103.798	-7.9733	-29.7911	-125.39	-56.4184	8.90965	-130.58	-48.9372	39.3009	-154.435	-41.9914	19.4665	
249	2.075	-153.169	-0.452141	3.09265	-145.354	10.5973	-22.967	-143.334	10.4071	-51.9162	-132.396	5.47793	-71.9718	-133.879	-42.1906	-56.3044	-120.48	-33.2402	-79.5268	-112.29	-1.29267	-76.6446	-115.731	-44.9337	-55.626	-101.277	-25.1809	-76.2102	-105.174	1.59148	-49.7161	-96.997	-45.6651	-48.6983	-87.508	-18.8144	-64.7631	-98.8822	-0.441587	-37.5892	-83.2171	-47.037	-34.4528	-72.923	-26.7475	-53.4891	-85.6594	-0.052678	-36.6105	-110.985	-52.4905	3.89419	-120.334	-42.1326	31.5515	-147.127	-36.7908	11.0088	
250	2.08333	-137.824	7.59463	-1.6002	-129.848	22.0461	-29.1825	-124.873	21.0349	-56.007	-112.892	14.6478	-73.0991	-123.173	-26.2119	-64.1825	-101.524	-19.4941	-85.4611	-90.5878	16.3798	-81.9912	-98.854	-33.2699	-66.4175	-86.3869	-10.8155	-82.7058	-87.9806	14.8794	-58.663	-85.3177	-32.6801	-54.7452	-68.4984	-9.26721	-68.0837	-80.6766	11.4542	-45.9269	-71.8775	-34.9433	-37.3909	-59.1148	-15.153	-56.6156	-70.001	10.3259	-41.6302	-105.622	-40.8626	-4.68881	-113.006	-35.1324	23.7099	-134.502	-26.9428	1.61708	
251	2.09167	-128.386	24.9487	-5.79251	-113.088	36.9542	-30.0002	-105.612	36.1158	-57.739	-91.3801	24.2265	-76.2335	-106.253	-8.04107	-71.9349	-86.2891	2.01867	-91.9501	-73.6147	29.9146	-87.2509	-88.361	-15.3111	-72.4362	-68.644	2.58755	-86.8438	-70.8644	30.7769	-63.9861	-71.0369	-19.4646	-62.9426	-56.4165	4.56897	-73.9599	-65.2016	24.9276	-47.1979	-61.3508	-21.1807	-41.5549	-46.0461	-2.96824	-60.3646	-59.3141	23.9666	-42.2892	-97.2325	-28.5757	-15.3121	-106.992	-26.9456	15.5626	-124.565	-16.4592	-8.5712	
252	2.1	-112.466	38.8932	-7.34213	-95.9794	52.5073	-35.1619	-87.842	55.7332	-57.1167	-73.0815	45.5678	-77.9685	-96.7371	13.988	-74.7837	-69.7176	22.4195	-94.1101	-53.2055	48.5657	-85.4767	-75.2065	1.35509	-77.7892	-55.416	20.0871	-90.4143	-54.9238	48.4706	-62.503	-61.9384	-3.87438	-66.6227	-43.1536	16.0907	-75.9548	-46.8093	36.769	-48.4073	-48.681	-11.9428	-49.1878	-36.9232	12.9247	-61.7355	-46.5191	34.1286	-42.0793	-90.3501	-13.6886	-19.9495	-102.178	-15.1589	7.15052	-118.633	1.7645	-16.1698	
